<svg width="14" height="14" viewBox="0 0 14 14" fill="none" xmlns="http://www.w3.org/2000/svg">
<path d="M12.3608 0.444637H8.90786C8.88313 0.195108 8.67253 0 8.41632 0H5.58354C5.32731 0 5.11676 0.195108 5.09204 0.444637H1.63911C1.36621 0.444637 1.14502 0.665824 1.14502 0.938801V1.87753C1.14502 2.15053 1.36621 2.37165 1.63911 2.37165H12.3608C12.6337 2.37165 12.8549 2.15051 12.8549 1.87753V0.938824C12.8549 0.665824 12.6337 0.444637 12.3608 0.444637Z" fill="#E46F6F" fill-opacity="0.5"/>
<path d="M2.18079 3.32081V13.5059C2.18079 13.7786 2.40197 14 2.67488 14H11.3248C11.5978 14 11.8188 13.7787 11.8188 13.5059V3.32081H2.18079ZM5.79821 10.9653C5.79821 11.2661 5.55431 11.5101 5.25353 11.5101C4.9526 11.5101 4.70886 11.2661 4.70886 10.9653V5.56507C4.70886 5.26427 4.9526 5.02039 5.25353 5.02039C5.55431 5.02039 5.79821 5.2643 5.79821 5.56507V10.9653ZM9.29098 10.9653C9.29098 11.2661 9.04708 11.5101 8.74621 11.5101C8.44535 11.5101 8.20154 11.2661 8.20154 10.9653V5.56507C8.20154 5.26427 8.44537 5.02039 8.74621 5.02039C9.04705 5.02039 9.29098 5.2643 9.29098 5.56507V10.9653Z" fill="#E46F6F" fill-opacity="0.5"/>
</svg>
