<svg width="11" height="10" viewBox="0 0 11 10" fill="none" xmlns="http://www.w3.org/2000/svg">
<path d="M10.6789 8.86407L6.06375 0.402659C5.99561 0.278493 5.90146 0.180302 5.78108 0.108232C5.661 0.0360983 5.53075 0 5.39055 0C5.25035 0 5.12008 0.0361614 4.99993 0.108232C4.87979 0.180302 4.78557 0.278493 4.7175 0.402659L0.102269 8.86407C-0.0379779 9.11661 -0.0339787 9.36901 0.114266 9.6214C0.182443 9.73752 0.275582 9.82972 0.393749 9.89772C0.512 9.96586 0.639175 10 0.775401 10H10.0058C10.1422 10 10.2693 9.96586 10.3875 9.89772C10.5058 9.82974 10.5988 9.73752 10.667 9.6214C10.8152 9.36886 10.8193 9.11661 10.6789 8.86407ZM6.15996 8.26311C6.15996 8.31915 6.1408 8.36619 6.10292 8.40422C6.06488 8.44234 6.0198 8.46127 5.96764 8.46127H4.81384C4.76177 8.46127 4.71668 8.44234 4.67865 8.40422C4.64057 8.36619 4.62154 8.31915 4.62154 8.26311V7.12127C4.62154 7.06524 4.64059 7.0182 4.67865 6.98016C4.71668 6.94204 4.7617 6.92312 4.81384 6.92312H5.96755C6.01973 6.92312 6.0648 6.94204 6.10285 6.98016C6.1408 7.0182 6.1599 7.06524 6.1599 7.12127V8.26311H6.15996ZM6.14802 6.01566C6.14386 6.05569 6.12281 6.08869 6.08486 6.11477C6.04674 6.14083 5.99969 6.1538 5.9436 6.1538H4.83182C4.77576 6.1538 4.72769 6.14075 4.68765 6.11477C4.64749 6.08861 4.6275 6.05569 4.6275 6.01551L4.52535 3.2693C4.52535 3.21317 4.54541 3.17111 4.58546 3.1431C4.63754 3.09904 4.68561 3.077 4.72973 3.077H6.05177C6.09593 3.077 6.14396 3.09896 6.19604 3.1431C6.23607 3.17111 6.25605 3.20919 6.25605 3.25726L6.14802 6.01566Z" fill="#C23E42"/>
</svg>
