<svg width="18" height="18" viewBox="0 0 18 18" fill="none" xmlns="http://www.w3.org/2000/svg">
<animateTransform 
  attributeName="transform"
  attributeType="XML"
  type="rotate"
  from="0"
  to="360"
  dur="1.5s"
  repeatCount="indefinite"
/>
<circle cx="9" cy="9" r="7.5" stroke="white" stroke-opacity="0.5" stroke-width="3"/>
<mask id="path-2-inside-1" fill="white">
<path d="M9 18C7.8181 18 6.64778 17.7672 5.55585 17.3149C4.46392 16.8626 3.47177 16.1997 2.63604 15.364C1.80031 14.5282 1.13738 13.5361 0.685083 12.4442C0.232791 11.3522 -4.45065e-07 10.1819 -3.93402e-07 9L3.00439 9C3.00439 9.78735 3.15947 10.567 3.46077 11.2944C3.76208 12.0218 4.20372 12.6828 4.76046 13.2395C5.3172 13.7963 5.97816 14.2379 6.70558 14.5392C7.433 14.8405 8.21264 14.9956 9 14.9956L9 18Z"/>
</mask>
<path d="M9 18C7.8181 18 6.64778 17.7672 5.55585 17.3149C4.46392 16.8626 3.47177 16.1997 2.63604 15.364C1.80031 14.5282 1.13738 13.5361 0.685083 12.4442C0.232791 11.3522 -4.45065e-07 10.1819 -3.93402e-07 9L3.00439 9C3.00439 9.78735 3.15947 10.567 3.46077 11.2944C3.76208 12.0218 4.20372 12.6828 4.76046 13.2395C5.3172 13.7963 5.97816 14.2379 6.70558 14.5392C7.433 14.8405 8.21264 14.9956 9 14.9956L9 18Z" stroke="white" stroke-width="6" mask="url(#path-2-inside-1)"/>
</svg>
