<svg width="18" height="18" viewBox="0 0 18 18" fill="none" xmlns="http://www.w3.org/2000/svg">
<path d="M17.2659 13.6944L12.5721 9.00057L17.2659 4.30669C17.6741 3.89853 17.6741 3.28628 17.2659 2.87812L15.1231 0.735261C14.7149 0.327097 14.1027 0.327097 13.6945 0.735261L9.00063 5.42914L4.30675 0.735261C3.89859 0.327097 3.28634 0.327097 2.87818 0.735261L0.735322 2.87812C0.327158 3.28628 0.327158 3.89853 0.735322 4.30669L5.4292 9.00057L0.735322 13.6944C0.327158 14.1026 0.327158 14.7149 0.735322 15.123L2.87818 17.2659C3.28634 17.674 3.89859 17.674 4.30675 17.2659L9.00063 12.572L13.6945 17.2659C14.1027 17.674 14.7149 17.674 15.1231 17.2659L17.2659 15.123C17.6741 14.7149 17.6741 14.1026 17.2659 13.6944Z" fill="#344273"/>
</svg>
