<svg width="14" height="14" viewBox="0 0 14 14" fill="none" xmlns="http://www.w3.org/2000/svg">
<g opacity="0.5">
<g clip-path="url(#clip0)">
<path d="M1.06181 11.9008C0.93735 12.1977 1.00471 12.5403 1.23231 12.7679C1.45992 12.9955 1.8025 13.0628 2.09932 12.9383L5.00028 11.7219L2.2782 8.99989L1.06181 11.9008Z" fill="#344273"/>
<path d="M12.768 3.19383L10.8063 1.23214C10.4967 0.922601 9.99486 0.922601 9.68529 1.23214L3.00502 7.91253C3.00332 7.91419 3.0019 7.91605 3.00024 7.91774L6.08245 11C6.08415 10.9983 6.086 10.9969 6.08766 10.9952L12.768 4.31486C13.0775 4.00529 13.0775 3.50341 12.768 3.19383Z" fill="#344273"/>
</g>
</g>
<defs>
<clipPath id="clip0">
<rect width="12" height="12" fill="white" transform="translate(1 1)"/>
</clipPath>
</defs>
</svg>
